<?xml version="1.0" encoding="utf-8"?>
<svg viewBox="0 0 500 500" xmlns="http://www.w3.org/2000/svg">
  <defs>
    <g/>
    <clipPath id="d451f1d61e">
      <path d="M 346 266 L 583 266 L 583 500.089844 L 346 500.089844 Z M 346 266 " clip-rule="nonzero"/>
    </clipPath>
    <clipPath id="a09074538a">
      <path d="M 227 301 L 444 301 L 444 500.089844 L 227 500.089844 Z M 227 301 " clip-rule="nonzero"/>
    </clipPath>
  </defs>
  <path fill="#2accc8" d="M 260.394 168.648 L 279.101 168.648 L 279.101 153.003 L 333.054 184.179 L 289.988 82.136 C 286.968 73.886 283.734 65.312 279.605 57.538 C 272.23 43.64 261.984 32.296 244.89 29.98 C 212.281 25.562 198.925 63.405 188.652 87.316 C 178.843 110.144 169.031 132.976 159.222 155.8 C 157.383 160.085 155.543 164.362 153.703 168.648 L 143.75 191.82 C 161.601 183.984 179.668 178.679 196.535 175.124 C 217.523 170.702 238.941 168.648 260.394 168.648" fill-opacity="1" fill-rule="nonzero"/>
  <g clip-path="url(#d451f1d61e)" transform="matrix(1, 0, 0, 1, -164.843689, -69.520027)">
    <path d="M 579.199219 442.894531 L 527.964844 323.660156 C 527.84375 323.378906 527.726562 323.101562 527.601562 322.824219 C 523.410156 313.074219 519.21875 303.316406 515.027344 293.566406 L 529.445312 266.601562 L 443.945312 316.917969 L 443.945312 301.273438 C 379.796875 301.273438 346.628906 380.269531 346.628906 380.269531 L 463.144531 380.269531 L 503.96875 475.269531 C 510.632812 490.78125 525.734375 500.066406 541.601562 500.066406 C 546.996094 500.066406 552.484375 498.992188 557.757812 496.722656 C 578.53125 487.78125 588.132812 463.679688 579.199219 442.894531 " fill-opacity="1" fill-rule="nonzero" style="fill: rgb(104, 66, 239);"/>
  </g>
  <g clip-path="url(#a09074538a)" transform="matrix(1, 0, 0, 1, -164.843689, -69.520027)">
    <path fill="#ffd804" d="M 443.945312 301.273438 L 411.464844 301.273438 C 338.632812 301.273438 272.789062 344.664062 244.015625 411.628906 L 237.484375 426.8125 C 237.03125 427.871094 236.597656 428.882812 236.179688 429.859375 L 235.414062 431.640625 C 235.34375 431.800781 235.273438 431.960938 235.207031 432.121094 L 235.121094 432.316406 C 232.285156 438.917969 230.578125 442.894531 230.578125 442.894531 C 221.644531 463.679688 231.242188 487.78125 252.015625 496.722656 C 257.292969 498.992188 262.777344 500.066406 268.171875 500.066406 C 284.039062 500.066406 299.144531 490.78125 305.808594 475.269531 L 346.628906 380.269531 C 346.628906 380.269531 379.796875 301.273438 443.945312 301.273438 " fill-opacity="1" fill-rule="nonzero"/>
  </g>
  <g fill="#00c2cb" fill-opacity="1" transform="matrix(1, 0, 0, 1, -164.843689, -69.520027)">
    <g transform="translate(307.46015, 703.899945)">
      <g/>
    </g>
  </g>
  <g fill="#00c2cb" fill-opacity="1" transform="matrix(1, 0, 0, 1, -164.843689, -69.520027)">
    <g transform="translate(487.743077, 703.899945)">
      <g/>
    </g>
  </g>
</svg>