<?xml version="1.0" encoding="utf-8"?>
<svg viewBox="317.211 198.493 512.563 113.693" xmlns="http://www.w3.org/2000/svg">
  <g fill="#00c2cb" fill-opacity="1" transform="matrix(1, 0, 0, 1, 169.588899, -332.828614)">
    <g transform="translate(307.46015, 703.899945)">
      <g/>
    </g>
  </g>
  <g fill="#00c2cb" fill-opacity="1" transform="matrix(1, 0, 0, 1, 169.588899, -332.828614)">
    <g transform="translate(487.743077, 703.899945)">
      <g/>
    </g>
  </g>
  <g fill="#6842ef" fill-opacity="1" transform="matrix(1, 0, 0, 1, 169.588899, -332.828614)">
    <g transform="translate(158.661909, 622.151821)">
      <g>
        <path d="M 5.027344 -67.195312 L 20.722656 -67.195312 L 20.722656 -82.070312 L 5.027344 -82.070312 Z M 5.027344 0 L 20.722656 0 L 20.722656 -60.011719 L 5.027344 -60.011719 Z M 5.027344 0 "/>
      </g>
    </g>
  </g>
  <g fill="#6842ef" fill-opacity="1" transform="matrix(1, 0, 0, 1, 169.588899, -332.828614)">
    <g transform="translate(184.40925, 622.151821)">
      <g>
        <path d="M 5.027344 0 L 78.890625 0 L 78.890625 -13.644531 L 21.234375 -13.644531 L 21.234375 -71.8125 L 5.027344 -71.8125 Z M 5.027344 0 "/>
      </g>
    </g>
  </g>
  <g fill="#6842ef" fill-opacity="1" transform="matrix(1, 0, 0, 1, 169.588899, -332.828614)">
    <g transform="translate(267.29313, 622.151821)">
      <g>
        <path d="M 5.027344 0 L 80.941406 0 L 80.941406 -13.027344 L 21.234375 -13.027344 L 21.234375 -29.75 L 80.941406 -29.75 L 80.941406 -42.058594 L 21.234375 -42.058594 L 21.234375 -58.78125 L 80.941406 -58.78125 L 80.941406 -71.8125 L 5.027344 -71.8125 Z M 5.027344 0 "/>
      </g>
    </g>
  </g>
  <g fill="#6842ef" fill-opacity="1" transform="matrix(1, 0, 0, 1, 169.588899, -332.828614)">
    <g transform="translate(352.228583, 622.151821)">
      <g>
        <path d="M 4 0 L 21.953125 0 L 30.671875 -15.902344 L 76.425781 -15.902344 L 85.148438 0 L 103.097656 0 L 64.015625 -71.8125 L 43.085938 -71.8125 Z M 36.929688 -28.417969 L 53.550781 -58.578125 L 70.167969 -28.417969 Z M 36.929688 -28.417969 "/>
      </g>
    </g>
  </g>
  <g fill="#6842ef" fill-opacity="1" transform="matrix(1, 0, 0, 1, 169.588899, -332.828614)">
    <g transform="translate(459.321094, 622.151821)">
      <g>
        <path d="M 42.984375 0 L 64.21875 0 L 103.097656 -71.8125 L 84.738281 -71.8125 L 53.550781 -13.335938 L 22.363281 -71.8125 L 4 -71.8125 Z M 42.984375 0 "/>
      </g>
    </g>
  </g>
  <g fill="#6842ef" fill-opacity="1" transform="matrix(1, 0, 0, 1, 169.588899, -332.828614)">
    <g transform="translate(566.413604, 622.151821)">
      <g>
        <path d="M 5.027344 0 L 80.941406 0 L 80.941406 -13.027344 L 21.234375 -13.027344 L 21.234375 -29.75 L 80.941406 -29.75 L 80.941406 -42.058594 L 21.234375 -42.058594 L 21.234375 -58.78125 L 80.941406 -58.78125 L 80.941406 -71.8125 L 5.027344 -71.8125 Z M 5.027344 0 "/>
      </g>
    </g>
  </g>
</svg>