<?xml version="1.0" encoding="utf-8"?>
<svg viewBox="179.02 -8.794 636.306 200.377" xmlns="http://www.w3.org/2000/svg">
  <g fill="#00c2cb" fill-opacity="1" transform="matrix(1, 0, 0, 1, 92.955727, -542.697388)">
    <g transform="translate(119.3936, 703.899945)">
      <g>
        <path d="M 0.671875 0 L 20.34375 -38.25 L 27.296875 -38.25 L 33.890625 0 L 29.125 0 L 27.5625 -9.96875 L 10.953125 -9.96875 L 6.015625 0 Z M 13.03125 -14.125 L 26.9375 -14.125 L 23.875 -33.796875 L 22.84375 -33.796875 Z M 13.03125 -14.125 "/>
      </g>
    </g>
  </g>
  <g fill="#00c2cb" fill-opacity="1" transform="matrix(1, 0, 0, 1, 92.955727, -542.697388)">
    <g transform="translate(159.66372, 703.899945)">
      <g>
        <path d="M 4.515625 0 L 11.265625 -38.25 L 30.9375 -38.25 L 35.8125 -32.28125 L 33.484375 -19.09375 L 27.765625 -14.21875 L 11.734375 -14.21875 L 9.234375 0 Z M 12.453125 -18.421875 L 25.796875 -18.421875 L 29.171875 -21.28125 L 30.890625 -31.203125 L 28.546875 -34.109375 L 15.265625 -34.046875 Z M 12.453125 -18.421875 "/>
      </g>
    </g>
  </g>
  <g fill="#00c2cb" fill-opacity="1" transform="matrix(1, 0, 0, 1, 92.955727, -542.697388)">
    <g transform="translate(196.97606, 703.899945)">
      <g>
        <path d="M 4.515625 0 L 11.265625 -38.25 L 30.9375 -38.25 L 35.8125 -32.28125 L 33.484375 -19.09375 L 27.765625 -14.21875 L 11.734375 -14.21875 L 9.234375 0 Z M 12.453125 -18.421875 L 25.796875 -18.421875 L 29.171875 -21.28125 L 30.890625 -31.203125 L 28.546875 -34.109375 L 15.265625 -34.046875 Z M 12.453125 -18.421875 "/>
      </g>
    </g>
  </g>
  <g fill="#00c2cb" fill-opacity="1" transform="matrix(1, 0, 0, 1, 92.955727, -542.697388)">
    <g transform="translate(234.288397, 703.899945)">
      <g>
        <path d="M 4.515625 0 L 11.265625 -38.25 L 15.984375 -38.25 L 10.015625 -4.359375 L 29.28125 -4.359375 L 28.5 0 Z M 4.515625 0 "/>
      </g>
    </g>
  </g>
  <g fill="#00c2cb" fill-opacity="1" transform="matrix(1, 0, 0, 1, 92.955727, -542.697388)">
    <g transform="translate(268.954329, 703.899945)">
      <g>
        <path d="M 14.0625 0 L 16.765625 -15.3125 L 7.421875 -38.25 L 12.40625 -38.25 L 19.5625 -20.8125 L 20.609375 -20.8125 L 33.015625 -38.25 L 38.875 -38.25 L 21.484375 -15.3125 L 18.796875 0 Z M 14.0625 0 "/>
      </g>
    </g>
  </g>
  <g fill="#00c2cb" fill-opacity="1" transform="matrix(1, 0, 0, 1, -148.250292, -384.405957)">
    <g transform="translate(307.46015, 703.899945)">
      <g/>
    </g>
  </g>
  <g fill="#00c2cb" fill-opacity="1" transform="matrix(1, 0, 0, 1, 92.955727, -542.697388)">
    <g transform="translate(324.638954, 703.899945)">
      <g>
        <path d="M 14.0625 0 L 16.765625 -15.3125 L 7.421875 -38.25 L 12.40625 -38.25 L 19.5625 -20.8125 L 20.609375 -20.8125 L 33.015625 -38.25 L 38.875 -38.25 L 21.484375 -15.3125 L 18.796875 0 Z M 14.0625 0 "/>
      </g>
    </g>
  </g>
  <g fill="#00c2cb" fill-opacity="1" transform="matrix(1, 0, 0, 1, 92.955727, -542.697388)">
    <g transform="translate(363.144774, 703.899945)">
      <g>
        <path d="M 9.5 0 L 4.625 -5.96875 L 9.453125 -33.375 L 15.15625 -38.25 L 33.265625 -38.25 L 38.15625 -32.28125 L 33.328125 -4.875 L 27.671875 0 Z M 11.828125 -4.203125 L 25.6875 -4.203125 L 29.015625 -7.0625 L 33.265625 -31.203125 L 30.9375 -34.046875 L 17.125 -34.046875 L 13.75 -31.203125 L 9.546875 -7.0625 Z M 11.828125 -4.203125 "/>
      </g>
    </g>
  </g>
  <g fill="#00c2cb" fill-opacity="1" transform="matrix(1, 0, 0, 1, 92.955727, -542.697388)">
    <g transform="translate(404.815909, 703.899945)">
      <g>
        <path d="M 27.296875 0 L 9.1875 0 L 4.3125 -5.96875 L 10.015625 -38.25 L 14.734375 -38.25 L 9.1875 -7.0625 L 11.515625 -4.203125 L 25.328125 -4.203125 L 28.65625 -7.0625 L 34.15625 -38.25 L 38.875 -38.25 L 33.015625 -4.828125 Z M 27.296875 0 "/>
      </g>
    </g>
  </g>
  <g fill="#00c2cb" fill-opacity="1" transform="matrix(1, 0, 0, 1, 92.955727, -542.697388)">
    <g transform="translate(446.954081, 703.899945)">
      <g>
        <path d="M 4.515625 0 L 11.265625 -38.25 L 31.8125 -38.25 L 36.546875 -32.4375 L 34.46875 -20.5 L 28.234375 -15.15625 L 27.921875 -15.15625 L 32.1875 0 L 26.9375 0 L 22.84375 -15.15625 L 11.890625 -15.15625 L 9.234375 0 Z M 12.671875 -19.359375 L 26.734375 -19.359375 L 30.046875 -22.21875 L 31.609375 -31.203125 L 29.328125 -34.046875 L 15.265625 -34.046875 Z M 12.671875 -19.359375 "/>
      </g>
    </g>
  </g>
  <g fill="#00c2cb" fill-opacity="1" transform="matrix(1, 0, 0, 1, -148.250292, -384.405957)">
    <g transform="translate(487.743077, 703.899945)">
      <g/>
    </g>
  </g>
  <g fill="#00c2cb" fill-opacity="1" transform="matrix(1, 0, 0, 1, 92.955727, -542.697388)">
    <g transform="translate(504.921865, 703.899945)">
      <g>
        <path d="M 4.515625 0 L 11.265625 -38.25 L 15.984375 -38.25 L 10.015625 -4.359375 L 29.28125 -4.359375 L 28.5 0 Z M 4.515625 0 "/>
      </g>
    </g>
  </g>
  <g fill="#00c2cb" fill-opacity="1" transform="matrix(1, 0, 0, 1, 92.955727, -542.697388)">
    <g transform="translate(539.587784, 703.899945)">
      <g>
        <path d="M 4.515625 0 L 11.265625 -38.25 L 36.484375 -38.25 L 35.71875 -33.890625 L 15.203125 -33.890625 L 13.1875 -22.265625 L 31.5 -22.265625 L 30.734375 -17.953125 L 12.40625 -17.953125 L 10.015625 -4.359375 L 30.515625 -4.359375 L 29.75 0 Z M 4.515625 0 "/>
      </g>
    </g>
  </g>
  <g fill="#00c2cb" fill-opacity="1" transform="matrix(1, 0, 0, 1, 92.955727, -542.697388)">
    <g transform="translate(577.678489, 703.899945)">
      <g>
        <path d="M 0.671875 0 L 20.34375 -38.25 L 27.296875 -38.25 L 33.890625 0 L 29.125 0 L 27.5625 -9.96875 L 10.953125 -9.96875 L 6.015625 0 Z M 13.03125 -14.125 L 26.9375 -14.125 L 23.875 -33.796875 L 22.84375 -33.796875 Z M 13.03125 -14.125 "/>
      </g>
    </g>
  </g>
  <g fill="#00c2cb" fill-opacity="1" transform="matrix(1, 0, 0, 1, 92.955727, -542.697388)">
    <g transform="translate(617.948599, 703.899945)">
      <g>
        <path d="M 13.65625 0 L 7.3125 -38.25 L 12.09375 -38.25 L 17.34375 -4.515625 L 18.53125 -4.515625 L 35.34375 -38.25 L 40.640625 -38.25 L 21.015625 0 Z M 13.65625 0 "/>
      </g>
    </g>
  </g>
  <g fill="#00c2cb" fill-opacity="1" transform="matrix(1, 0, 0, 1, 92.955727, -542.697388)">
    <g transform="translate(658.166798, 703.899945)">
      <g>
        <path d="M 4.515625 0 L 11.265625 -38.25 L 36.484375 -38.25 L 35.71875 -33.890625 L 15.203125 -33.890625 L 13.1875 -22.265625 L 31.5 -22.265625 L 30.734375 -17.953125 L 12.40625 -17.953125 L 10.015625 -4.359375 L 30.515625 -4.359375 L 29.75 0 Z M 4.515625 0 "/>
      </g>
    </g>
  </g>
  <g fill="#6842ef" fill-opacity="1" transform="matrix(1, 0, 0, 1, 85.418091, -530.762695)">
    <g transform="translate(158.661909, 622.151821)">
      <g>
        <path d="M 5.027344 -67.195312 L 20.722656 -67.195312 L 20.722656 -82.070312 L 5.027344 -82.070312 Z M 5.027344 0 L 20.722656 0 L 20.722656 -60.011719 L 5.027344 -60.011719 Z M 5.027344 0 "/>
      </g>
    </g>
  </g>
  <g fill="#6842ef" fill-opacity="1" transform="matrix(1, 0, 0, 1, 85.418091, -530.762695)">
    <g transform="translate(184.40925, 622.151821)">
      <g>
        <path d="M 5.027344 0 L 78.890625 0 L 78.890625 -13.644531 L 21.234375 -13.644531 L 21.234375 -71.8125 L 5.027344 -71.8125 Z M 5.027344 0 "/>
      </g>
    </g>
  </g>
  <g fill="#6842ef" fill-opacity="1" transform="matrix(1, 0, 0, 1, 85.418091, -530.762695)">
    <g transform="translate(267.29313, 622.151821)">
      <g>
        <path d="M 5.027344 0 L 80.941406 0 L 80.941406 -13.027344 L 21.234375 -13.027344 L 21.234375 -29.75 L 80.941406 -29.75 L 80.941406 -42.058594 L 21.234375 -42.058594 L 21.234375 -58.78125 L 80.941406 -58.78125 L 80.941406 -71.8125 L 5.027344 -71.8125 Z M 5.027344 0 "/>
      </g>
    </g>
  </g>
  <g fill="#6842ef" fill-opacity="1" transform="matrix(1, 0, 0, 1, 85.418091, -530.762695)">
    <g transform="translate(352.228583, 622.151821)">
      <g>
        <path d="M 4 0 L 21.953125 0 L 30.671875 -15.902344 L 76.425781 -15.902344 L 85.148438 0 L 103.097656 0 L 64.015625 -71.8125 L 43.085938 -71.8125 Z M 36.929688 -28.417969 L 53.550781 -58.578125 L 70.167969 -28.417969 Z M 36.929688 -28.417969 "/>
      </g>
    </g>
  </g>
  <g fill="#6842ef" fill-opacity="1" transform="matrix(1, 0, 0, 1, 85.418091, -530.762695)">
    <g transform="translate(459.321094, 622.151821)">
      <g>
        <path d="M 42.984375 0 L 64.21875 0 L 103.097656 -71.8125 L 84.738281 -71.8125 L 53.550781 -13.335938 L 22.363281 -71.8125 L 4 -71.8125 Z M 42.984375 0 "/>
      </g>
    </g>
  </g>
  <g fill="#6842ef" fill-opacity="1" transform="matrix(1, 0, 0, 1, 85.418091, -530.762695)">
    <g transform="translate(566.413604, 622.151821)">
      <g>
        <path d="M 5.027344 0 L 80.941406 0 L 80.941406 -13.027344 L 21.234375 -13.027344 L 21.234375 -29.75 L 80.941406 -29.75 L 80.941406 -42.058594 L 21.234375 -42.058594 L 21.234375 -58.78125 L 80.941406 -58.78125 L 80.941406 -71.8125 L 5.027344 -71.8125 Z M 5.027344 0 "/>
      </g>
    </g>
  </g>
</svg>